<?xml version="1.0" standalone="no"?>
<!DOCTYPE svg PUBLIC "-//W3C//DTD SVG 20010904//EN"
 "http://www.w3.org/TR/2001/REC-SVG-20010904/DTD/svg10.dtd">
<svg version="1.0" xmlns="http://www.w3.org/2000/svg"
 width="200.000000pt" height="200.000000pt" viewBox="0 0 200.000000 200.000000"
 preserveAspectRatio="xMidYMid meet">

<g transform="translate(0.000000,200.000000) scale(0.100000,-0.100000)"
fill="#000000" stroke="none">
<path d="M0 1696 c0 -220 3 -307 12 -312 6 -4 8 -3 4 4 -3 6 6 19 21 30 29 21
148 72 167 72 11 0 -111 -60 -128 -63 -6 -1 -25 -18 -43 -37 l-33 -35 0 -677
0 -678 1000 0 1000 0 0 1000 0 1000 -1000 0 -1000 0 0 -304z m867 18 c-3 -3
-12 -4 -19 -1 -8 3 -5 6 6 6 11 1 17 -2 13 -5z m70 -10 c-3 -3 -12 -4 -19 -1
-8 3 -5 6 6 6 11 1 17 -2 13 -5z m-142 -14 c-3 -5 3 -10 15 -10 12 0 18 5 15
10 -3 6 2 10 13 10 10 0 19 -7 19 -15 0 -15 -15 -20 -50 -17 -10 1 -16 -2 -13
-6 2 -4 -15 -18 -39 -31 -34 -18 -47 -21 -63 -12 -12 6 -24 11 -29 11 -4 -1 3
-7 16 -14 l24 -13 -22 -12 c-18 -10 -26 -10 -39 1 -15 11 -16 11 -4 -4 11 -14
9 -19 -17 -37 -16 -12 -42 -21 -58 -21 l-28 1 45 40 c57 51 139 99 156 92 8
-3 12 -9 9 -13 -3 -5 5 -6 16 -3 l21 6 -22 12 -23 12 29 11 c16 6 30 11 32 11
2 1 0 -3 -3 -9z m-352 -177 c-7 -2 -21 -2 -30 0 -10 3 -4 5 12 5 17 0 24 -2
18 -5z m-124 -7 c-10 -10 -89 -23 -94 -16 -3 5 7 11 22 13 43 6 77 8 72 3z
m225 -2 c12 -5 11 -10 -10 -31 -21 -20 -23 -28 -12 -35 9 -7 5 -8 -14 -5 -15
2 -25 1 -23 -4 3 -4 -1 -14 -9 -22 -28 -27 -105 -183 -127 -257 -19 -59 -23
-99 -24 -190 0 -63 3 -133 7 -155 l7 -40 -16 45 c-11 32 -16 85 -16 180 -1
128 1 140 33 233 18 55 43 114 56 133 55 80 56 78 -27 71 -127 -11 -252 -53
-287 -95 -12 -15 -12 -15 -3 4 6 12 21 28 34 37 43 28 161 58 251 64 84 6 90
8 119 40 32 35 36 37 61 27z m126 -24 c0 -5 -2 -10 -4 -10 -3 0 -8 5 -11 10
-3 6 -1 10 4 10 6 0 11 -4 11 -10z m-90 -39 c0 -14 -29 -21 -36 -9 -4 6 -3 8
4 4 6 -3 13 -2 17 4 8 12 15 13 15 1z m60 -2 c0 -4 -9 -9 -20 -12 -12 -3 -20
0 -20 7 0 6 9 12 20 12 11 0 20 -3 20 -7z m212 -34 c133 -28 192 -44 185 -52
-3 -2 -42 6 -88 18 -46 12 -129 30 -184 39 -55 10 -85 19 -68 19 18 1 88 -10
155 -24z m-286 -23 c-17 -16 -18 -16 -5 5 7 12 15 20 18 17 3 -2 -3 -12 -13
-22z m-26 -11 c0 -19 -39 -74 -40 -55 0 5 5 15 12 22 9 9 9 12 0 12 -7 0 -12
-6 -12 -12 0 -9 -3 -8 -10 2 -14 22 5 36 26 19 16 -13 17 -12 12 9 -4 12 -2
22 3 22 5 0 9 -9 9 -19z m802 -21 c37 -40 44 -74 25 -116 -21 -43 -59 -68
-103 -66 -45 2 -71 16 -89 52 -30 59 -8 131 48 156 44 19 87 10 119 -26z
m-852 -30 c8 -16 5 -30 -19 -72 -16 -29 -40 -87 -52 -128 -38 -122 -30 -314
16 -424 6 -13 5 -17 -2 -13 -6 4 -13 2 -15 -5 -6 -18 -37 65 -53 144 -34 162
-6 327 81 476 14 23 27 42 29 42 2 0 9 -9 15 -20z m737 -259 c17 -11 34 -28
37 -39 6 -17 -105 -347 -121 -362 -7 -6 2 38 13 65 7 19 7 19 -9 3 -9 -9 -18
-29 -18 -45 -2 -23 -2 -24 -6 -5 -2 12 -9 22 -15 22 -6 0 -8 3 -5 7 4 3 2 12
-5 20 -9 12 -15 9 -34 -14 -16 -19 -24 -23 -24 -13 -1 8 -2 35 -4 60 -1 25 -9
59 -16 77 -13 30 -12 35 30 105 24 40 50 87 59 105 13 27 22 32 51 33 19 0 49
-9 67 -19z m216 -237 c11 -11 -52 -124 -66 -118 -8 3 -25 -12 -42 -36 -15 -22
-30 -39 -32 -37 -3 4 53 108 94 175 13 21 33 28 46 16z m-408 -144 c3 -5 1
-10 -4 -10 -6 0 -11 5 -11 10 0 6 2 10 4 10 3 0 8 -4 11 -10z m327 -22 c-7 -7
-12 -8 -12 -2 0 14 12 26 19 19 2 -3 -1 -11 -7 -17z m-905 -14 c-3 -4 -2 -15
4 -25 5 -11 6 -19 1 -19 -6 0 -12 9 -15 19 -5 19 0 31 11 31 3 0 2 -3 -1 -6z
m853 -28 c0 -3 -4 -8 -10 -11 -5 -3 -10 -1 -10 4 0 6 5 11 10 11 6 0 10 -2 10
-4z m-789 -83 c13 -16 12 -17 -3 -4 -17 13 -22 21 -14 21 2 0 10 -8 17 -17z"/>
<path d="M768 1673 c7 -3 16 -2 19 1 4 3 -2 6 -13 5 -11 0 -14 -3 -6 -6z"/>
<path d="M1270 1323 c-32 -6 -40 -14 -45 -44 -6 -32 4 -45 41 -52 27 -5 33 -3
39 16 12 35 13 57 3 57 -6 0 -8 7 -4 15 3 8 2 14 -2 14 -4 -1 -18 -4 -32 -6z"/>
<path d="M1120 775 c0 -5 5 -17 10 -25 5 -8 10 -10 10 -5 0 6 -5 17 -10 25 -5
8 -10 11 -10 5z"/>
<path d="M1370 741 c0 -6 4 -13 10 -16 6 -3 7 1 4 9 -7 18 -14 21 -14 7z"/>
</g>
</svg>
