<?xml version="1.0" standalone="no"?>
<!DOCTYPE svg PUBLIC "-//W3C//DTD SVG 20010904//EN"
 "http://www.w3.org/TR/2001/REC-SVG-20010904/DTD/svg10.dtd">
<svg version="1.0" xmlns="http://www.w3.org/2000/svg"
 width="417.000000pt" height="160.000000pt" viewBox="0 0 417.000000 160.000000"
 preserveAspectRatio="xMidYMid meet">

<g transform="translate(0.000000,160.000000) scale(0.100000,-0.100000)"
fill="#000000" stroke="none">
<path d="M825 1429 c-80 -23 -83 -25 -55 -32 11 -3 18 -2 15 3 -5 7 44 25 51
18 6 -7 -12 -24 -46 -41 -19 -10 -26 -15 -15 -11 108 37 316 41 425 8 74 -22
162 -67 227 -117 53 -40 165 -177 178 -217 6 -18 12 -20 33 -15 15 4 28 8 30
10 7 7 -32 72 -84 142 -88 118 -226 209 -384 252 -101 28 -275 28 -375 0z"/>
<path d="M655 1360 c-3 -6 1 -7 9 -4 18 7 21 14 7 14 -6 0 -13 -4 -16 -10z"/>
<path d="M384 1320 c65 -5 142 -14 170 -20 28 -6 67 -14 86 -16 18 -3 36 -6
38 -9 2 -2 -14 -13 -37 -24 -44 -23 -81 -27 -81 -10 0 5 -5 7 -12 3 -8 -5 -5
-11 11 -17 21 -10 20 -12 -31 -66 -29 -30 -45 -49 -35 -42 9 8 17 10 17 5 0
-5 7 0 15 10 8 11 17 17 20 14 3 -3 -7 -21 -22 -39 -25 -31 -25 -33 -3 -14 14
11 29 25 35 31 5 6 27 24 48 39 35 26 36 29 20 42 -16 13 -16 13 4 4 28 -14
66 -14 58 -1 -7 12 53 40 84 40 30 0 105 -27 210 -77 51 -24 96 -41 99 -38 3
3 3 7 1 9 -13 12 -153 76 -199 91 -70 23 -75 26 -59 36 8 5 68 9 134 8 113 -1
120 0 123 18 4 26 -20 33 -127 33 -54 0 -112 -8 -167 -22 -72 -19 -89 -20
-119 -9 -40 14 -82 18 -265 25 l-135 5 119 -9z"/>
<path d="M223 1313 c9 -2 23 -2 30 0 6 3 -1 5 -18 5 -16 0 -22 -2 -12 -5z"/>
<path d="M178 1303 c7 -3 16 -2 19 1 4 3 -2 6 -13 5 -11 0 -14 -3 -6 -6z"/>
<path d="M511 1256 c-9 -10 -8 -15 2 -19 8 -3 13 3 13 14 0 23 0 23 -15 5z"/>
<path d="M418 1243 c12 -2 32 -2 45 0 12 2 2 4 -23 4 -25 0 -35 -2 -22 -4z"/>
<path d="M198 1233 c7 -3 16 -2 19 1 4 3 -2 6 -13 5 -11 0 -14 -3 -6 -6z"/>
<path d="M126 1196 c-22 -20 -36 -43 -36 -57 0 -20 4 -17 20 16 11 22 32 48
47 57 16 10 23 18 16 18 -6 0 -28 -15 -47 -34z"/>
<path d="M724 1185 c11 -8 25 -15 32 -15 7 0 21 -2 31 -5 10 -3 0 3 -22 14
-48 23 -68 26 -41 6z"/>
<path d="M22 1160 c0 -14 2 -19 5 -12 2 6 2 18 0 25 -3 6 -5 1 -5 -13z"/>
<path d="M848 1143 c7 -3 16 -2 19 1 4 3 -2 6 -13 5 -11 0 -14 -3 -6 -6z"/>
<path d="M459 1083 c-13 -17 -13 -17 6 -3 11 8 22 16 24 17 2 2 0 3 -6 3 -6 0
-17 -8 -24 -17z"/>
<path d="M455 1019 c-4 -6 -5 -12 -2 -15 2 -3 7 2 10 11 7 17 1 20 -8 4z"/>
<path d="M1940 838 c-7 -35 -18 -88 -25 -118 -7 -30 -16 -72 -19 -92 l-7 -38
104 0 c102 0 117 4 117 36 0 2 -36 4 -80 4 -87 0 -87 0 -69 63 l10 37 73 0
c70 0 86 7 86 36 0 2 -34 4 -75 4 l-76 0 7 38 c4 20 9 40 11 45 2 4 40 7 84 7
72 0 79 2 79 20 0 19 -7 20 -104 20 l-103 0 -13 -62z"/>
<path d="M2215 873 c-10 -40 -55 -265 -55 -274 0 -5 11 -9 25 -9 20 0 25 6 31
38 11 61 21 72 62 72 75 0 84 -7 80 -61 -3 -47 -2 -49 24 -49 24 0 27 4 33 50
7 53 2 70 -21 70 -24 0 -16 15 14 26 46 18 71 133 33 154 -11 5 -64 10 -119
10 l-100 0 -7 -27z m184 -27 c13 -16 -3 -74 -27 -93 -9 -7 -42 -13 -75 -13
-51 0 -58 2 -53 18 2 9 8 33 11 52 4 19 9 38 12 43 8 13 120 8 132 -7z"/>
<path d="M2516 813 c-9 -49 -21 -101 -26 -118 -4 -16 -11 -47 -15 -67 -5 -35
-4 -38 19 -38 21 0 26 7 37 50 l13 50 55 1 c110 1 152 34 166 130 10 71 -4 79
-129 79 l-103 0 -17 -87z m188 0 c-1 -62 -15 -73 -91 -73 -58 0 -64 2 -58 18
3 9 9 31 12 47 9 56 9 56 75 53 l63 -3 -1 -42z"/>
<path d="M716 783 c-10 -49 -23 -112 -31 -140 -13 -53 -13 -53 10 -53 19 0 25
8 35 50 l12 50 72 0 c90 0 113 19 123 98 9 76 0 82 -112 82 l-92 0 -17 -87z
m172 15 c5 -54 -23 -78 -89 -78 -48 0 -51 1 -46 23 3 12 9 39 13 60 l6 38 57
-3 56 -3 3 -37z"/>
<path d="M1010 777 c-34 -17 -59 -72 -60 -128 0 -54 7 -59 80 -59 65 0 88 21
106 95 7 33 11 67 8 76 -9 30 -89 39 -134 16z m85 -76 c-1 -64 -24 -91 -74
-83 -28 4 -31 8 -31 38 0 35 18 84 35 97 5 4 24 6 40 5 29 -3 30 -4 30 -57z"/>
<path d="M1190 689 l0 -99 33 0 c34 0 36 3 84 123 8 20 19 37 23 37 5 0 8 -36
7 -80 l-2 -80 33 0 c29 0 35 5 51 43 10 23 28 64 40 91 18 39 20 50 9 57 -18
11 -21 7 -59 -91 -28 -71 -34 -80 -37 -55 -12 154 -11 151 -39 149 -22 0 -30
-12 -60 -82 -20 -45 -38 -82 -42 -82 -3 0 -6 37 -6 81 0 70 -2 82 -17 85 -16
2 -18 -8 -18 -97z"/>
<path d="M1550 777 c-48 -24 -80 -148 -46 -176 21 -18 134 -10 147 10 14 22
11 29 -11 29 -11 0 -20 -4 -20 -9 0 -14 -38 -24 -66 -17 -19 5 -24 13 -24 36
0 33 -9 30 115 34 28 1 30 4 33 44 3 38 0 43 -23 52 -35 13 -75 12 -105 -3z
m93 -29 c11 -34 -5 -48 -54 -48 -51 0 -57 7 -39 41 12 22 85 28 93 7z"/>
<path d="M1761 780 c-14 -8 -50 -132 -51 -172 0 -11 7 -18 19 -18 14 0 20 10
24 43 12 83 27 117 52 123 29 7 48 -3 41 -22 -4 -9 2 -14 15 -14 17 0 20 5 17
33 -2 26 -8 33 -29 35 -15 2 -33 -4 -42 -12 -19 -20 -25 -20 -29 -1 -2 10 -7
12 -17 5z"/>
<path d="M322 655 c0 -16 2 -22 5 -12 2 9 2 23 0 30 -3 6 -5 -1 -5 -18z"/>
<path d="M335 607 c-15 -37 18 -149 71 -244 37 -67 118 -161 168 -195 20 -14
13 -4 -20 29 -86 84 -159 208 -179 301 -4 18 -10 30 -15 27 -5 -3 -6 10 -3 29
3 18 1 42 -5 52 -10 18 -11 18 -17 1z m12 -49 c-3 -7 -5 -2 -5 12 0 14 2 19 5
13 2 -7 2 -19 0 -25z"/>
<path d="M622 134 c10 -10 20 -16 22 -13 3 3 -5 11 -17 18 -21 13 -21 12 -5
-5z"/>
</g>
</svg>
